<svg width="86" height="54" viewBox="0 0 86 54" fill="none" xmlns="http://www.w3.org/2000/svg">
<path fill-rule="evenodd" clip-rule="evenodd" d="M12.6865 46.7323H6.97185C3.26396 46.7323 0.258301 43.7747 0.258301 40.1264V18.8519L6.02177 4.41654C7.03093 1.88849 9.51001 0.226074 12.2703 0.226074H50.7868C53.0711 0.226074 55.1987 1.36901 56.4341 3.25977L65.5978 17.286L79.9818 20.0255C83.139 20.6268 85.4196 23.3467 85.4196 26.5111V40.1264C85.4196 43.7747 82.4139 46.7323 78.706 46.7323H72.9582C71.641 50.6243 67.6716 53.4519 62.9792 53.4519C58.287 53.4519 54.3176 50.6243 53.0005 46.7323H31.2185C29.9956 50.6243 26.3097 53.4519 21.9526 53.4519C17.5954 53.4519 13.9095 50.6243 12.6865 46.7323ZM10.1874 6.0268C10.5238 5.18424 11.3502 4.62998 12.2703 4.62998H32.0435V17.0671H5.77959L10.1874 6.0268ZM36.5193 17.0671V4.62998H50.7868C51.5483 4.62998 52.2574 5.01107 52.6692 5.64127L60.134 17.0671H36.5193ZM64.0184 21.471L79.1313 24.3492C80.1838 24.5496 80.944 25.4564 80.944 26.5111V40.1264C80.944 41.3425 79.9421 42.3284 78.706 42.3284H73.2797C72.455 37.8113 68.1572 34.3681 62.9792 34.3681C57.8014 34.3681 53.5036 37.8113 52.679 42.3284H31.5171C30.7514 37.8113 26.7607 34.3681 21.9526 34.3681C17.1444 34.3681 13.1537 37.8113 12.3879 42.3284H6.97185C5.73595 42.3284 4.73388 41.3425 4.73388 40.1264V21.471H64.0184ZM21.9526 49.048C24.8364 49.048 27.1741 46.7476 27.1741 43.9099C27.1741 41.0724 24.8364 38.772 21.9526 38.772C19.0687 38.772 16.731 41.0724 16.731 43.9099C16.731 46.7476 19.0687 49.048 21.9526 49.048ZM62.9792 49.048C66.5933 49.048 68.9469 46.4459 68.9469 43.9099C68.9469 41.3741 66.5933 38.772 62.9792 38.772C59.3654 38.772 57.0117 41.3741 57.0117 43.9099C57.0117 46.4459 59.3654 49.048 62.9792 49.048Z" fill="black"/>
</svg>
