<svg width="87" height="60" viewBox="0 0 87 60" fill="none" xmlns="http://www.w3.org/2000/svg">
<path d="M43.4531 0.984367L41.5476 0.0327148V0.0390134L41.5413 0.0475884L41.5285 0.0752393L41.4837 0.166764C41.2611 0.642765 41.0553 1.12647 40.8663 1.61664C40.3964 2.8308 40.0289 4.08205 39.7678 5.35745C39.2057 8.16988 39.0204 12.3365 41.948 15.2639C43.2785 16.5944 43.4638 18.815 42.9614 21.3252C42.6639 22.7728 42.1994 24.181 41.5775 25.5215L41.5519 25.5747L41.5476 25.5812L43.4531 26.5328C45.3565 27.4845 45.3585 27.4824 45.3585 27.4824V27.478L45.365 27.4696L45.3778 27.442L45.4224 27.3503L45.5715 27.0311C46.2707 25.4702 46.7962 23.8375 47.1385 22.1619C47.7006 19.3473 47.8857 15.1807 44.9583 12.2533C43.6276 10.9226 43.4425 8.70206 43.9449 6.19203C44.2424 4.74442 44.7067 3.3362 45.3288 1.99569L45.3543 1.9425L45.3585 1.93602L43.4531 0.984367Z" fill="black"/>
<path fill-rule="evenodd" clip-rule="evenodd" d="M0.871094 40.3678C0.871094 39.8033 1.09544 39.2616 1.49462 38.8625C1.89397 38.4631 2.43542 38.2388 3.00015 38.2388H83.9035C84.468 38.2388 85.0097 38.4631 85.4089 38.8625C85.8082 39.2616 86.0324 39.8033 86.0324 40.3678C86.0324 40.9325 85.8082 41.474 85.4089 41.8734C85.0097 42.2725 84.468 42.4969 83.9035 42.4969H77.5163C77.5163 47.0142 75.7219 51.3463 72.5276 54.5406C69.3335 57.7347 65.0014 59.5291 60.4841 59.5291H26.4196C21.9023 59.5291 17.57 57.7347 14.3759 54.5406C11.1818 51.3463 9.38731 47.0142 9.38731 42.4969H3.00015C2.43542 42.4969 1.89397 42.2725 1.49462 41.8734C1.09544 41.474 0.871094 40.9325 0.871094 40.3678ZM13.6452 42.4969H73.2582C73.2582 45.8849 71.9125 49.1339 69.5167 51.5297C67.1211 53.9253 63.8719 55.271 60.4841 55.271H26.4196C23.0316 55.271 19.7823 53.9253 17.3868 51.5297C14.9912 49.1339 13.6452 45.8849 13.6452 42.4969Z" fill="black"/>
<path d="M24.6513 5.11914L26.4185 6.31125C28.1834 7.50142 28.1857 7.49932 28.1857 7.49932L28.1578 7.54184C27.9711 7.83987 27.7963 8.14525 27.6342 8.45745C27.2316 9.2215 26.9106 10.0256 26.6761 10.8569C26.1651 12.756 26.3482 14.2547 27.6853 15.2426C31.1386 17.8018 30.9554 21.6276 30.2699 24.1632C29.9565 25.29 29.5248 26.3805 28.9819 27.4165C28.7597 27.8436 28.5196 28.2614 28.2623 28.6682L28.2196 28.7365L28.2089 28.7514L28.192 28.7769L28.1878 28.7853L28.1857 28.7876C28.1857 28.7876 28.1834 28.7918 26.4185 27.5995C24.6534 26.4072 24.6513 26.4093 24.6513 26.4093L24.679 26.3689L24.794 26.1859C24.9373 25.9458 25.0736 25.7015 25.2028 25.4535C25.5328 24.8189 25.9117 23.9674 26.1609 23.052C26.6719 21.1528 26.4887 19.6561 25.1517 18.6661C21.6984 16.1071 21.8814 12.2833 22.5671 9.74545C22.9183 8.4424 23.4379 7.29702 23.8551 6.49237C24.0927 6.03667 24.3507 5.59199 24.6279 5.15957L24.6429 5.13401L24.6493 5.12334L24.6534 5.11914H24.6513ZM62.6121 6.30914C60.847 5.11687 60.8449 5.11914 60.8449 5.11914V5.12334L60.8365 5.13401L60.8194 5.15957C60.538 5.58902 60.2807 6.03405 60.0487 6.49237C59.6315 7.29702 59.1119 8.4424 58.7607 9.74545C58.075 12.2812 57.892 16.1071 61.3452 18.6661C62.6822 19.6561 62.8655 21.1528 62.3524 23.052C62.1053 23.9674 61.7264 24.8189 61.3942 25.4535C61.2331 25.7657 61.0589 26.0711 60.8726 26.3689L60.847 26.4116L62.6121 27.5995C64.3769 28.7918 64.3792 28.7876 64.3792 28.7876V28.7853L64.3876 28.7769L64.4048 28.7514L64.4366 28.6982L64.458 28.6682C64.7152 28.2614 64.9553 27.8436 65.1776 27.4165C65.7188 26.3799 66.1499 25.2897 66.4635 24.1632C67.149 21.6276 67.3322 17.8018 63.8789 15.2426C62.5417 14.2526 62.3587 12.756 62.8718 10.8569C63.1187 9.94128 63.4977 9.08972 63.8299 8.45517C63.9914 8.14315 64.1654 7.83777 64.3514 7.53975L64.377 7.49932L62.6121 6.30914Z" fill="black"/>
</svg>
