<svg width="76" height="61" viewBox="0 0 76 61" fill="none" xmlns="http://www.w3.org/2000/svg">
<path d="M1.89634 20.3752C0.486915 21.2463 0.0504553 23.0949 0.92148 24.5044C1.79251 25.9138 3.64118 26.3502 5.0506 25.4792L1.89634 20.3752ZM14.8839 19.4022C16.2934 18.5312 16.7298 16.6825 15.8588 15.2731C14.9878 13.8637 13.1391 13.4272 11.7297 14.2982L14.8839 19.4022ZM16.3068 16.8502C16.3068 15.1934 14.9637 13.8502 13.3068 13.8502C11.65 13.8502 10.3068 15.1934 10.3068 16.8502H16.3068ZM28.0568 60.344C29.7137 60.344 31.0568 59.0008 31.0568 57.344C31.0568 55.6871 29.7137 54.344 28.0568 54.344V60.344ZM11.7293 14.2976C10.32 15.1688 9.88381 17.0176 10.7551 18.4269C11.6263 19.8362 13.475 20.2723 14.8843 19.4011L11.7293 14.2976ZM33.77 4.19876L32.4701 1.495C32.3749 1.54075 32.2823 1.59149 32.1925 1.64701L33.77 4.19876ZM42.0103 4.19876L43.5878 1.64701C43.498 1.59149 43.4053 1.54075 43.3102 1.495L42.0103 4.19876ZM60.896 19.4011C62.3052 20.2723 64.154 19.8362 65.0252 18.4269C65.8965 17.0176 65.4603 15.1688 64.051 14.2976L60.896 19.4011ZM25.0568 57.3432C25.0568 59.0001 26.4 60.3432 28.0568 60.3432C29.7137 60.3432 31.0568 59.0001 31.0568 57.3432H25.0568ZM44.7235 57.3432C44.7235 59.0001 46.0666 60.3432 47.7235 60.3432C49.3803 60.3432 50.7235 59.0001 50.7235 57.3432H44.7235ZM28.0568 54.3431C26.4 54.3431 25.0568 55.6862 25.0568 57.3431C25.0568 59 26.4 60.3431 28.0568 60.3431V54.3431ZM47.7235 60.3431C49.3803 60.3431 50.7235 59 50.7235 57.3431C50.7235 55.6862 49.3803 54.3431 47.7235 54.3431V60.3431ZM47.7235 54.344C46.0666 54.344 44.7235 55.6871 44.7235 57.344C44.7235 59.0008 46.0666 60.344 47.7235 60.344V54.344ZM65.4735 16.8502C65.4735 15.1934 64.1303 13.8502 62.4735 13.8502C60.8166 13.8502 59.4735 15.1934 59.4735 16.8502H65.4735ZM64.0506 14.2982C62.6412 13.4272 60.7925 13.8637 59.9215 15.2731C59.0505 16.6825 59.4869 18.5312 60.8963 19.4022L64.0506 14.2982ZM70.7297 25.4792C72.1391 26.3502 73.9878 25.9138 74.8588 24.5044C75.7298 23.0949 75.2934 21.2463 73.8839 20.3752L70.7297 25.4792ZM5.0506 25.4792L14.8839 19.4022L11.7297 14.2982L1.89634 20.3752L5.0506 25.4792ZM10.3068 16.8502V49.969H16.3068V16.8502H10.3068ZM10.3068 49.969C10.3068 52.8979 11.0484 55.7654 13.4213 57.7849C15.6749 59.7028 18.8248 60.344 22.4026 60.344V54.344C19.343 54.344 17.945 53.756 17.31 53.2156C16.7944 52.7768 16.3068 51.9568 16.3068 49.969H10.3068ZM22.4026 60.344H28.0568V54.344H22.4026V60.344ZM14.8843 19.4011L35.3475 6.7505L32.1925 1.64701L11.7293 14.2976L14.8843 19.4011ZM35.0699 6.90251C36.8524 6.04552 38.9279 6.04552 40.7104 6.90251L43.3102 1.495C39.8845 -0.151977 35.8958 -0.151977 32.4701 1.495L35.0699 6.90251ZM40.4328 6.7505L60.896 19.4011L64.051 14.2976L43.5878 1.64701L40.4328 6.7505ZM31.0568 57.3432V52.4265H25.0568V57.3432H31.0568ZM31.0568 52.4265C31.0568 48.6525 34.1162 45.5931 37.8901 45.5931V39.5931C30.8025 39.5931 25.0568 45.3388 25.0568 52.4265H31.0568ZM37.8901 45.5931C41.6641 45.5931 44.7235 48.6525 44.7235 52.4265H50.7235C50.7235 45.3388 44.9778 39.5931 37.8901 39.5931V45.5931ZM44.7235 52.4265V57.3432H50.7235V52.4265H44.7235ZM28.0568 60.3431H47.7235V54.3431H28.0568V60.3431ZM47.7235 60.344H53.3776V54.344H47.7235V60.344ZM53.3776 60.344C56.9555 60.344 60.1054 59.7028 62.359 57.7849C64.7319 55.7654 65.4735 52.8979 65.4735 49.969H59.4735C59.4735 51.9568 58.9859 52.7768 58.4703 53.2156C57.8353 53.756 56.4373 54.344 53.3776 54.344V60.344ZM65.4735 49.969V16.8502H59.4735V49.969H65.4735ZM60.8963 19.4022L70.7297 25.4792L73.8839 20.3752L64.0506 14.2982L60.8963 19.4022Z" fill="black"/>
</svg>
