<svg width="1920" height="769" viewBox="0 0 1920 769" fill="none" xmlns="http://www.w3.org/2000/svg">
<path d="M619.89 707.927C623.552 719.605 634.54 727.715 633.319 742.638C623.247 739.394 615.007 735.177 610.734 724.471C606.766 714.415 601.273 705.007 597 695.275C589.98 679.055 586.318 660.889 576.857 645.642C569.227 633.315 568.311 620.015 567.09 606.065C566.785 603.47 566.175 599.902 569.227 599.253C571.974 598.604 575.331 602.821 578.993 608.985C586.318 621.961 593.948 643.371 596.084 647.913C605.24 667.701 613.481 687.49 619.89 707.927ZM1976.5 711.82C1974.67 707.278 1973.15 702.412 1972.23 697.546C1954.83 683.597 1937.74 669.648 1918.52 658.294C1909.36 652.779 1900.81 646.291 1892.88 639.154C1892.88 637.857 1892.57 636.559 1891.35 635.261C1882.2 624.232 1872.74 613.527 1863.58 602.497C1856.87 590.494 1847.4 580.438 1837.03 572.328C1820.55 559.352 1805.29 545.727 1791.55 530.156C1773.55 509.719 1752.18 501.284 1726.24 504.204C1712.2 505.826 1701.82 498.689 1696.03 486.037C1687.78 468.195 1672.83 454.895 1657.88 443.865C1644.14 433.809 1623.69 424.401 1614.23 409.803C1610.26 403.964 1604.77 399.098 1601.72 392.286C1592.26 372.173 1575.47 363.09 1556.85 354.98C1548.92 351.736 1543.12 345.248 1538.24 338.435C1532.74 330.974 1526.94 324.811 1520.84 317.674C1515.04 311.186 1513.21 301.129 1507.72 293.668C1501.31 284.909 1493.37 277.448 1485.13 270.636C1472.01 259.606 1458.88 248.577 1447.9 235.276C1439.96 225.544 1432.94 219.381 1421.35 226.842C1411.88 233.005 1402.73 239.818 1394.49 247.603C1390.83 251.172 1387.16 254.74 1384.11 258.633C1381.36 262.201 1379.23 269.338 1375.87 272.258C1359.08 287.18 1338.64 297.561 1321.85 312.483C1316.36 317.349 1309.95 315.727 1306.28 308.591C1295.3 287.829 1279.73 271.285 1264.47 254.416C1261.12 250.523 1257.15 247.279 1253.18 244.684C1240.36 236.898 1230.29 225.869 1213.81 228.139C1213.2 227.491 1212.89 227.166 1212.28 226.517C1191.53 206.729 1174.13 183.697 1155.21 162.286C1150.63 157.096 1147.58 150.283 1143.31 144.769C1135.68 134.712 1124.69 129.846 1114.01 124.331C1093.87 114.599 1076.16 100.001 1058.46 86.0521C1032.22 65.6149 1009.02 42.5825 993.455 11.4401C986.13 -2.83346 975.448 -3.1579 963.545 9.1693C942.792 30.5797 923.869 53.9365 905.862 77.9421C895.181 92.2157 882.973 104.543 869.239 115.248C866.187 117.519 863.44 120.114 860.388 122.709C844.517 131.144 831.089 143.147 820.406 158.718C819.796 159.691 819.491 160.664 819.491 161.637C806.367 173.965 794.464 186.292 784.698 201.214C768.828 225.22 752.652 249.225 738.003 273.88C722.437 300.156 699.853 319.296 679.709 340.706C666.281 354.98 651.021 367.956 634.235 378.337C624.163 384.5 614.702 383.527 604.935 376.066C600.663 372.822 596.084 369.253 591.506 366.334C591.506 364.712 590.896 363.09 589.065 361.792C575.636 352.06 560.071 342.328 547.558 330.65C534.434 317.998 521.31 305.347 508.187 292.695C499.336 284.261 487.738 267.392 474.004 269.338C468.511 270.311 455.998 274.204 453.251 280.043C450.809 285.234 449.589 290.749 447.147 295.939C441.653 307.617 434.329 317.674 424.562 325.135C401.672 343.626 383.36 367.631 362.606 388.393C340.022 410.777 312.249 424.726 287.527 444.514C282.034 445.812 278.371 452.949 272.572 453.922C260.975 455.868 249.988 461.707 239.916 468.844C223.13 481.171 219.162 503.231 205.123 517.829C201.156 521.721 197.799 526.263 193.526 529.831C190.169 532.751 185.285 534.697 182.233 537.941C175.214 544.105 168.194 549.944 160.869 555.783C147.135 567.137 133.401 575.572 118.141 584.006C89.7577 600.226 63.5105 618.393 46.7245 648.886C36.0425 668.35 22.3085 685.543 10.4057 704.034C0.639309 718.957 -7.60108 735.177 -19.8091 749.45C-17.3675 750.748 -16.4519 751.721 -15.8415 751.397C6.43811 742.638 29.3281 745.557 51.9129 746.855C71.7509 747.828 85.7901 737.447 100.745 724.471C113.869 713.117 130.655 703.061 145.304 694.627C151.103 691.058 159.038 689.436 164.532 685.543C169.72 681.975 172.772 674.838 177.655 670.621C188.337 661.538 195.052 649.535 201.766 636.883C204.818 630.72 211.227 627.8 217.942 626.503C233.202 623.907 242.968 614.175 249.682 599.577C257.312 583.357 270.131 571.355 283.56 560.649C289.053 556.108 295.157 549.295 301.566 547.025C310.722 543.781 322.625 545.078 332.086 543.456C356.502 539.563 376.951 524.317 394.347 506.15C412.965 486.362 430.971 466.573 441.958 439.973C444.095 434.458 451.42 427.97 457.829 422.779C474.615 409.803 490.485 395.53 487.128 369.253C486.212 361.792 488.349 354.331 489.875 346.87C494.453 345.572 498.421 342.653 499.336 337.138C499.336 336.813 499.336 336.489 499.336 336.165C502.693 331.623 505.135 333.245 513.986 339.409C514.291 339.733 514.596 339.733 514.901 340.057C521.005 346.87 528.025 352.385 535.35 357.251C563.123 382.229 591.506 405.911 625.384 421.806C645.222 431.214 658.956 447.434 662.008 471.764C663.534 485.064 670.248 496.743 676.352 508.097C679.709 514.585 680.32 528.209 688.56 529.831C690.696 530.156 693.443 530.48 694.969 532.102C696.19 533.4 696.495 535.346 696.801 537.293C699.547 550.917 709.924 557.405 719.691 565.515C750.821 591.143 772.795 632.666 809.419 650.184C827.731 658.943 842.991 673.216 858.251 687.165C884.804 711.171 912.577 738.745 944.928 753.343C949.506 755.289 955.915 760.804 959.273 754.965C962.325 749.775 958.052 743.287 953.779 738.745C946.454 731.284 939.129 723.823 931.499 717.01C924.785 711.171 922.038 703.385 919.902 694.627C917.46 684.246 920.512 678.082 926.921 669.972C934.857 660.24 937.908 648.886 941.571 636.559C943.707 628.773 947.98 621.961 954.695 617.419C962.019 612.553 970.87 612.229 977.89 607.039C994.981 594.387 1004.44 564.218 1005.66 543.132C1006.88 521.073 1009.02 499.013 1009.94 476.954C1010.24 470.791 1012.38 464.303 1017.87 461.383C1021.53 459.112 1026.11 458.463 1030.08 457.49C1044.42 453.597 1038.93 439.324 1041.37 428.619C1040.15 433.485 1049.61 429.267 1050.22 428.619C1057.55 424.077 1063.96 413.696 1073.11 413.047C1081.66 412.399 1087.15 421.806 1091.73 428.294C1099.66 439.648 1108.21 450.353 1119.2 458.788C1142.7 477.279 1160.7 500.635 1168.33 531.129C1169.86 536.968 1173.83 547.025 1176.27 552.539C1186.04 573.95 1193.67 596.333 1204.65 617.095C1206.18 620.339 1219.91 644.345 1227.54 644.993C1229.98 645.318 1231.51 644.669 1231.51 641.425C1230.9 629.422 1222.05 622.285 1216.56 612.878C1215.34 610.607 1213.81 601.848 1211.37 594.063C1202.82 564.867 1192.45 536.644 1178.71 509.394C1175.05 502.257 1174.44 492.525 1170.47 484.74C1163.45 470.791 1151.24 461.059 1141.17 450.029C1121.33 427.97 1104.85 405.262 1109.13 372.173C1113.09 370.875 1114.92 374.768 1117.67 377.039C1136.29 390.988 1155.82 404.289 1176.57 414.345C1186.34 418.887 1194.89 422.131 1203.74 428.943C1216.56 438.999 1226.63 451.975 1239.14 462.356C1250.74 471.764 1262.95 480.523 1270.58 494.147C1277.29 506.475 1288.58 515.233 1297.43 525.614C1305.37 535.022 1308.12 547.349 1312.39 558.703C1314.53 564.542 1316.97 570.057 1320.93 574.923C1331.92 589.197 1331.01 608.661 1337.11 625.205C1340.47 634.613 1341.08 646.291 1347.18 654.725C1353.29 663.16 1358.47 672.892 1362.44 682.624C1366.41 692.356 1367.94 704.359 1375.87 711.171C1379.23 714.091 1382.89 716.686 1386.25 719.605C1388.38 725.769 1392.35 731.608 1396.93 737.772C1399.07 713.442 1387.77 691.707 1378.01 670.945C1364.88 643.047 1362.75 612.229 1357.86 581.735C1364.27 581.735 1368.55 584.979 1372.21 588.223C1393.88 605.741 1417.38 621.312 1431.42 647.264C1434.47 652.779 1439.96 655.699 1445.15 657.969C1457.36 663.16 1467.13 670.621 1474.14 682.624C1478.72 690.409 1484.52 694.627 1492.15 697.546C1501.31 701.115 1509.85 706.305 1519.01 710.198C1530.3 714.739 1541.59 715.064 1552.58 709.549C1556.24 707.927 1555.02 701.763 1549.83 699.493C1541.59 695.6 1533.66 691.058 1525.11 688.139C1513.21 683.921 1503.44 676.46 1496.42 666.728C1485.44 650.833 1470.79 640.127 1456.14 629.098C1439.35 616.446 1425.31 600.551 1416.77 580.762C1410.05 565.515 1399.68 557.73 1385.64 552.864C1376.48 549.62 1367.02 546.7 1359.08 541.185C1323.07 506.799 1295.3 463.654 1257.76 430.565C1237.31 412.399 1215.64 393.908 1190 381.905C1170.17 372.822 1150.02 363.739 1136.29 344.275C1135.98 343.95 1135.68 343.626 1135.37 343.301C1135.07 342.977 1135.07 342.653 1134.76 342.328C1132.93 339.733 1130.79 337.462 1128.66 335.84C1128.35 335.516 1128.35 335.516 1128.05 335.191C1120.11 326.757 1110.65 319.945 1099.66 316.376C1088.07 312.159 1070.37 321.891 1063.35 335.84C1062.74 337.138 1062.74 339.084 1061.82 340.057C1048.39 353.358 1039.54 370.551 1027.33 385.149C1012.99 402.018 995.591 404.937 977.585 415.318C964.461 423.104 957.136 439.973 947.065 451.651C934.857 466.249 923.869 481.82 918.986 500.96C917.46 507.772 912.882 512.963 907.999 517.504C899.148 526.587 889.076 533.4 878.089 539.239C874.122 541.185 869.849 543.456 867.407 547.025C855.199 563.569 835.972 568.435 820.712 580.113C814.302 584.979 809.114 584.331 803.01 577.194C794.464 567.137 783.172 560.325 778.289 546.376C775.542 538.915 774.016 534.697 775.542 532.102C785.919 529.831 795.685 526.587 805.452 521.721C809.724 519.775 808.504 514.585 805.452 512.314C819.796 486.686 833.835 462.681 839.329 434.782C844.822 406.884 843.296 377.688 850.011 349.789C853.368 335.516 858.251 322.864 870.459 313.132C881.752 304.373 887.856 289.775 896.096 277.773C898.843 273.88 898.843 268.689 898.538 263.499C897.012 241.115 899.148 214.839 917.46 200.565C929.058 191.158 938.214 178.506 943.402 163.908C948.896 148.661 947.37 132.441 958.052 119.465C967.818 107.787 975.753 95.1353 978.5 79.5641C979.721 73.0761 984.299 68.5346 988.877 65.615C998.948 59.127 1017.57 86.3765 1023.97 92.2157C1045.03 111.68 1068.23 129.197 1091.12 146.066C1099.97 152.554 1110.04 157.745 1119.5 163.584C1133.24 171.694 1141.48 187.914 1151.55 200.241C1156.13 206.08 1155.82 210.297 1148.19 209.973C1128.35 209 1112.48 220.678 1095.09 228.464C1090.2 230.735 1085.32 233.33 1083.18 241.115C1093.26 239.818 1102.41 239.169 1111.57 237.547C1122.55 235.276 1132.93 239.493 1143.31 242.737C1154.6 246.306 1165.89 246.306 1177.49 247.603C1202.21 250.523 1230.6 256.687 1247.38 277.124C1264.47 297.885 1279.12 320.593 1292.55 343.95C1304.15 363.739 1316.66 383.203 1328.87 402.342C1330.7 405.262 1333.45 410.128 1337.11 408.181C1340.77 406.235 1338.64 401.369 1338.03 397.801C1337.42 393.583 1336.19 389.691 1336.8 384.5C1355.42 388.717 1370.99 398.449 1382.89 412.399C1412.19 447.109 1438.44 484.415 1465.29 521.073C1472.01 530.156 1475.06 539.888 1478.11 549.944C1481.47 560.649 1485.74 570.706 1493.07 579.14C1504.05 591.792 1509.85 607.687 1518.7 621.637C1520.84 624.881 1522.06 628.449 1526.94 628.449C1529.08 623.259 1528.47 616.446 1526.33 613.202C1515.96 597.307 1515.96 578.167 1511.07 560.649C1509.24 553.837 1508.63 549.62 1510.16 546.7C1515.04 547.349 1519.92 547.673 1525.11 548.322C1541.59 556.757 1557.16 567.137 1574.56 573.95C1586.76 578.491 1597.45 585.304 1606.3 595.36C1616.67 607.039 1628.88 615.797 1641.39 623.907C1644.75 626.178 1645.67 632.666 1647.5 637.208C1653.3 651.806 1655.43 667.377 1657.88 682.948C1659.4 692.68 1661.84 702.088 1670.08 712.793C1667.34 689.112 1662.76 668.026 1662.45 644.993C1678.93 654.725 1696.33 658.943 1707.32 675.811C1712.51 683.597 1722.27 687.165 1729.9 692.356C1739.97 698.844 1750.66 703.71 1761.03 708.251C1772.63 713.442 1784.84 716.686 1798.57 717.01C1796.74 709.873 1790.94 707.927 1786.67 705.332C1751.57 685.868 1721.36 659.591 1693.28 630.071C1684.73 620.988 1676.8 610.931 1668.56 601.199C1653.3 583.357 1639.26 564.218 1620.34 549.944C1603.85 537.293 1592.56 519.126 1578.83 503.555C1562.04 484.415 1540.98 470.466 1523.28 452.624C1501.61 430.565 1475.67 415.318 1450.34 398.449C1435.99 388.717 1432.33 371.2 1428.06 354.98C1424.4 341.355 1424.4 327.406 1428.36 314.105C1432.64 299.832 1433.86 285.558 1433.86 270.96C1433.86 266.419 1434.16 262.201 1437.83 260.255C1441.49 258.309 1444.24 262.526 1447.29 264.797C1469.87 281.665 1482.39 307.293 1498.26 330.325C1503.75 338.435 1508.94 346.545 1510.16 356.926C1511.07 363.414 1515.65 367.307 1521.15 370.227C1531.83 376.066 1542.2 381.905 1552.89 387.42C1563.26 392.935 1571.5 400.071 1577.61 410.777C1593.17 440.297 1613.93 463.329 1645.36 475.657C1660.32 481.496 1672.83 495.121 1683.21 509.07C1686.26 513.287 1687.48 518.802 1683.51 522.695C1677.41 528.534 1677.41 537.941 1671.3 543.781C1667.34 547.349 1670.39 553.188 1675.27 552.215C1678.63 551.566 1682.6 546.051 1685.04 543.781C1696.33 533.4 1704.57 528.209 1719.83 527.561C1734.48 527.236 1747.3 532.102 1760.73 538.266C1797.35 555.783 1822.38 586.926 1848.32 617.419C1861.14 632.666 1873.35 649.211 1891.66 658.294C1897.46 661.213 1899.9 666.728 1901.42 672.892C1904.17 682.948 1909.97 691.058 1916.07 699.493C1918.21 698.519 1920.65 697.871 1923.09 697.222C1921.57 688.463 1915.46 681.651 1915.16 673.216C1919.43 672.892 1921.87 676.136 1924.31 678.082C1942.02 690.734 1957.89 703.385 1976.5 711.82ZM806.978 719.605C804.231 712.793 801.179 706.629 794.465 701.115C791.718 695.275 787.14 690.085 780.425 685.868C753.263 668.026 724.574 653.428 697.106 636.559C686.729 630.071 678.794 620.015 670.859 610.607C662.313 600.551 653.157 593.738 642.475 586.601C614.702 567.786 587.234 546.376 563.123 522.37C562.207 515.558 556.408 510.367 550.304 509.07C549.999 509.07 549.999 509.07 549.694 509.07C544.201 497.716 533.824 487.984 523.142 486.362C516.122 485.389 510.323 488.957 505.44 493.499C493.843 504.204 482.55 516.207 470.342 526.263C457.829 536.644 444.4 548.647 430.666 556.757C417.543 564.542 401.062 562.271 387.022 561.947C375.12 561.623 365.964 566.164 358.028 575.247C345.82 589.197 328.119 596.658 316.826 610.931C315.911 612.229 305.229 612.229 303.092 612.553C298.209 613.851 293.326 615.473 289.053 618.068C280.203 622.934 273.793 630.395 266.163 637.208C247.851 653.428 230.76 671.27 213.669 689.112C210.007 693.005 205.734 692.031 203.292 694.951C184.98 714.739 160.869 729.986 152.629 758.858C151.713 762.102 148.967 764.697 150.798 768.914C165.753 754.965 181.012 741.34 195.662 727.067C201.766 721.227 211.227 720.254 217.331 714.415C219.468 712.469 231.981 698.195 235.338 704.034C237.78 708.251 236.559 715.713 233.202 721.552C225.877 733.879 219.163 746.206 210.312 757.56C228.013 749.45 239.611 735.177 249.072 718.308C259.144 699.817 271.962 684.246 289.358 672.567C311.028 657.969 335.138 648.562 356.808 634.288C363.217 630.071 368.405 623.907 375.425 620.988C379.087 621.637 384.276 622.61 387.938 621.637C388.854 622.285 389.769 623.259 390.685 623.907C389.159 628.125 386.412 632.342 383.665 635.91C370.542 652.779 357.723 669.972 343.684 686.192C342.768 687.49 341.853 688.463 341.242 689.761C335.138 694.302 329.95 699.493 325.677 705.981C311.943 719.281 296.378 730.311 284.78 746.206C277.15 756.587 278.982 764.373 291.19 766.968C310.112 770.861 328.119 767.617 343.684 754.965C356.503 744.909 370.236 740.043 386.107 739.718C400.757 739.394 413.27 733.879 424.562 723.498C434.329 714.415 447.757 710.198 456.303 699.168C467.29 685.219 478.888 671.594 483.16 653.752C484.992 645.967 490.18 641.101 494.453 635.261C499.336 628.773 510.323 626.827 516.732 622.934C526.194 616.771 528.025 606.065 529.551 595.36C531.382 580.113 539.012 570.057 548.473 560.325C554.883 553.837 561.292 553.513 567.09 561.298C581.74 581.735 602.494 592.441 623.247 603.47C635.455 609.958 647.053 617.744 655.904 630.72C665.365 644.345 673.911 658.618 682.761 672.892C688.865 682.948 693.138 699.817 702.294 706.629C716.333 717.01 725.489 725.769 734.645 741.34C739.223 749.45 744.717 756.911 753.568 765.346C751.126 736.474 745.938 711.82 725.489 694.627C717.249 687.49 715.112 678.082 712.976 666.404C735.561 674.514 753.568 687.49 770.354 702.737C779.204 710.847 788.055 720.579 798.127 727.391C800.263 737.123 811.556 736.474 816.134 743.935C813.997 740.691 813.692 733.879 812.166 729.986C809.419 726.093 808.198 722.525 806.978 719.605Z" fill="url(#paint0_linear_1258_800)"/>
<defs>
<linearGradient id="paint0_linear_1258_800" x1="978.347" y1="0.305664" x2="978.347" y2="768.914" gradientUnits="userSpaceOnUse">
<stop offset="0.348958" stop-opacity="0.06"/>
<stop offset="0.947917" stop-opacity="0"/>
</linearGradient>
</defs>
</svg>
