<svg width="84" height="74" viewBox="0 0 84 74" fill="none" xmlns="http://www.w3.org/2000/svg">
<path d="M28.1355 6.3549V56.6775M55.8903 16.4968V68.2904M3.8645 20.9872V58.6517C3.8645 66.0065 9.09031 69.0259 15.4387 65.3872L24.5355 60.2001C26.5097 59.0775 29.8 58.9614 31.8516 60.0065L52.1742 70.1872C54.2258 71.1936 57.5161 71.1162 59.4903 69.9936L76.2516 60.3936C78.3806 59.1549 80.1613 56.1355 80.1613 53.6581V15.9936C80.1613 8.63877 74.9355 5.61942 68.5871 9.25813L59.4903 14.4452C57.5161 15.5678 54.2258 15.6839 52.1742 14.6388L31.8516 4.49684C29.8 3.49039 26.5097 3.5678 24.5355 4.69039L7.77418 14.2904C5.60644 15.5291 3.8645 18.5485 3.8645 20.9872Z" stroke="black" stroke-width="5.80645" stroke-linecap="round" stroke-linejoin="round"/>
</svg>
