<svg width="130" height="66" viewBox="0 0 130 66" fill="none" xmlns="http://www.w3.org/2000/svg">
<path fill-rule="evenodd" clip-rule="evenodd" d="M25.3538 39.2491V56.0363H34.7388C34.7388 56.0363 39.1268 55.9142 39.7971 51.3358C40.4674 46.7575 36.8109 45.8419 36.8109 45.8419C38.3268 43.4376 36.8908 40.3585 34.2165 39.5691C33.592 39.3847 32.7321 39.2185 31.6614 39.2185C29.2541 39.2185 25.3538 39.2491 25.3538 39.2491ZM28.8583 48.7259H34.3888C35.3692 48.7259 36.1713 49.5294 36.1713 50.5115C36.1713 51.4935 35.3692 52.297 34.3888 52.297H28.8583V48.7259ZM28.8583 42.891H32.7183C33.3021 42.891 33.7797 43.3695 33.7797 43.9542V43.9544C33.7797 44.539 33.3021 45.0175 32.7183 45.0175H28.8583V42.891Z" fill="currentColor"/>
<path fill-rule="evenodd" clip-rule="evenodd" d="M0.720581 55.9658H4.72025L6.87973 50.6619C9.30326 50.9875 13.7281 51.0983 17.0942 49.6409L19.6693 55.9658H23.669L14.3838 33.16H14.0055H10.3841H10.0057L0.720581 55.9658ZM8.74597 46.0781L12.1948 37.6072L15.0279 44.5657L13.8104 43.4282L12.4958 45.3895L11.9363 44.591L11.4329 45.1793L10.6358 43.6104L8.74597 46.0781Z" fill="currentColor"/>
<path fill-rule="evenodd" clip-rule="evenodd" d="M45.6169 56.0363H49.1214V42.4752C50.8122 42.2028 52.475 41.7914 54.1039 41.2093C53.7942 40.1004 53.4843 38.9914 53.1746 37.8825C48.9478 39.1166 44.6899 39.3557 40.4224 39.2865C40.4224 40.4666 40.4224 41.6468 40.4224 42.827C42.1727 42.9287 43.9063 42.9465 45.6169 42.8497V56.0363Z" fill="currentColor"/>
<path fill-rule="evenodd" clip-rule="evenodd" d="M81.2846 56.0363H84.7891V42.9055C88.022 42.8394 91.1761 42.3557 94.2051 41.2093C93.9125 40.1004 93.6199 38.9914 93.3275 37.8825C89.3358 39.1166 85.3148 39.3557 81.2846 39.2865V39.317V42.827V56.0363ZM99.1103 48.5648C99.1103 48.5648 106.483 42.6749 106.819 39.317H110.324V56.0363H106.819V45.6957L102.615 49.8162C102.615 49.8162 99.6276 52.4283 99.1103 56.0363H95.6058V39.317H99.1103V48.5648ZM124.187 52.5259H117.058C118.276 50.6109 118.298 46.5813 118.235 42.8273H124.187V52.5259ZM129.125 56.2412V52.5259H127.692V42.8273V39.317H124.187H118.185C117.017 39.317 115.849 39.317 114.681 39.317V42.8177C114.64 46.4233 114.359 50.211 112.762 52.5259V56.0363V58.0267H116.327V56.0363H124.187H125.559V58.0267H127.342C128.323 58.0267 129.125 57.2232 129.125 56.2412Z" fill="currentColor"/>
<path fill-rule="evenodd" clip-rule="evenodd" d="M66.9322 40.0149C70.2153 40.0149 72.877 42.6324 72.877 46.1301C72.877 49.6277 70.2153 52.4633 66.9322 52.4633C63.649 52.4633 60.9874 49.6277 60.9874 46.1301C60.9874 42.6324 63.649 40.0149 66.9322 40.0149ZM66.9322 35.0916C72.8443 35.0916 77.6371 39.5693 77.6371 45.6495C77.6371 49.8086 74.8519 54.4678 72.8 57.7025C69.3083 63.2072 68.0066 64.742 68.0066 64.742C68.0066 64.742 67.6966 65.3149 66.9322 65.3968C66.1678 65.3149 65.8578 64.742 65.8578 64.742C65.8578 64.742 64.556 63.2072 61.0644 57.7025C59.0126 54.4678 56.2273 49.8086 56.2273 45.6495C56.2273 39.5693 61.0201 35.0916 66.9322 35.0916Z" fill="currentColor"/>
<path d="M59.9853 18.2703C59.8838 18.3832 59.7099 18.3925 59.5972 18.2908C59.4844 18.1891 59.4753 18.015 59.5768 17.9021L64.5027 12.4165C64.6042 12.3036 64.7781 12.2944 64.8908 12.3961L66.6331 14.0924L69.169 10.8594C69.2628 10.7398 69.4357 10.7191 69.555 10.813C69.5712 10.8258 69.5854 10.8399 69.5979 10.8551L73.3587 15.4533L74.7469 13.4634C74.8335 13.3392 75.0044 13.3087 75.1285 13.3955C75.1561 13.4149 75.179 13.4384 75.197 13.4646L78.1968 17.7922C78.2829 17.9171 78.2515 18.0883 78.1269 18.1745C78.0023 18.2606 77.8314 18.2293 77.7453 18.1045L76.0261 15.624L75.2775 16.198C75.1398 16.2877 75.0023 16.2922 74.8647 16.198L74.0887 15.3653L73.6136 16.0463C73.5974 16.0743 73.576 16.1 73.5495 16.1218C73.4321 16.218 73.2587 16.2007 73.1625 16.0829L71.1286 13.596L70.0009 14.351C69.859 14.4496 69.7093 14.4824 69.5399 14.351C69.5399 14.351 68.513 13.3802 68.1545 13.044L66.8769 14.6728L66.8575 14.6944C66.7519 14.8032 66.5781 14.8056 66.4695 14.6998L65.6117 13.8648C64.7669 14.6371 64.6422 14.4946 64.5624 14.4613C64.4971 14.434 64.1074 14.1079 63.8835 13.9293L59.9853 18.2703Z" fill="currentColor"/>
<path fill-rule="evenodd" clip-rule="evenodd" d="M76.6854 0.225159C78.9317 0.225159 80.7526 2.09791 80.7526 4.40806C80.7526 5.98826 79.6944 7.75846 78.9148 8.98738C77.5882 11.0788 77.0936 11.662 77.0936 11.662C77.0936 11.662 76.9759 11.8796 76.6854 11.9108C76.395 11.8796 76.2772 11.662 76.2772 11.662C76.2772 11.662 75.7827 11.0788 74.456 8.98738C73.6765 7.75846 72.6182 5.98826 72.6182 4.40806C72.6182 2.09791 74.4392 0.225159 76.6854 0.225159ZM76.6854 2.18448C77.9328 2.18448 78.9441 3.26169 78.9441 4.59066C78.9441 5.91953 77.9328 6.99685 76.6854 6.99685C75.438 6.99685 74.4268 5.91953 74.4268 4.59066C74.4268 3.26169 75.438 2.18448 76.6854 2.18448Z" fill="currentColor"/>
<path fill-rule="evenodd" clip-rule="evenodd" d="M50.7572 30.7554C50.7572 30.3243 50.9722 30.0246 51.1438 29.6381C51.4914 28.855 51.979 27.8825 52.1912 27.0627C52.2298 26.9135 52.3275 26.6289 52.3275 26.4697C52.4243 26.4955 52.6694 26.9335 52.7337 27.0202C53.1486 27.5798 53.4767 28.2022 53.8147 28.8098C54.2994 29.8212 54.1561 30.1512 54.3938 31.102C54.7495 32.5236 55.0563 32.3715 56.2292 32.2016C56.47 32.1633 56.7041 32.121 56.9403 32.0695C57.2692 31.9835 57.401 31.6638 57.1535 30.9144C56.273 29.4209 56.7403 27.3041 55.8828 25.9404C55.8304 25.857 55.7743 25.7947 55.7156 25.7204C55.0141 24.8313 53.8296 24.6592 53.8296 23.1642C53.8296 22.9392 53.8543 22.6582 53.8876 22.4472L54.0116 21.7965C54.176 21.8404 54.9586 22.6012 56.539 22.7299C56.7828 22.7497 57.4523 22.7601 57.6074 22.6854C57.6074 23.1163 57.6793 23.8644 57.6756 24.2813L57.8999 27.4306C57.9385 27.7903 58.1199 31.7186 58.1559 31.739C58.3187 31.9756 58.8093 31.9685 58.9786 31.6958C58.9976 31.6654 59.0096 31.6404 59.018 31.6199C59.0404 31.4566 59.0648 30.8376 59.0152 30.394C58.9312 29.645 58.9458 28.8612 58.8625 28.1077C58.7474 27.069 58.7518 26.1398 58.6735 25.1512C58.6445 24.8742 58.6035 24.5417 58.586 24.2584C58.5718 24.026 58.4372 22.5973 58.3812 22.4803C58.6174 22.3668 58.9001 22.2818 59.1028 22.1089C59.6117 21.6752 59.6417 21.2102 59.2877 20.6604C59.059 20.3055 58.7091 20.2019 58.3129 20.1095C58.3129 19.6892 58.1507 18.8775 58.0238 18.5754C57.6893 17.779 57.4026 18.4309 57.4026 19.0152V19.9499C57.4026 20.0284 57.4194 20.0381 57.4254 20.1095C56.5987 20.1095 55.8873 19.8836 55.4494 19.2165C55.2305 18.8832 55.1087 18.4822 54.9147 18.1334C54.889 18.0872 54.8764 18.0538 54.853 18.0129C54.8105 17.939 54.7596 17.8709 54.7041 17.7972C54.6363 17.7071 54.3933 17.4622 54.3758 17.3967C54.5679 17.3923 54.9841 17.1989 55.1136 17.11C55.6357 16.7518 56.0019 16.2133 56.1375 15.5822C56.2508 15.054 56.2246 13.886 55.4909 13.886C55.1393 13.886 54.9674 14.1007 54.9674 14.4103C54.9674 14.6205 55.1039 14.8227 55.0696 15.0807C55.0293 15.3833 55.0056 15.4734 54.8839 15.6945C54.5029 16.3867 53.5757 16.5457 53.0158 15.9778C52.7651 15.7236 52.6462 15.5051 52.6462 15.117C52.6462 14.7065 52.8628 14.3885 53.118 14.1307C53.41 13.8359 53.7377 13.8374 54.3078 13.8406L54.8162 13.8028C54.9181 13.7817 54.8749 13.8039 54.9409 13.7454C55.0686 13.6321 55.1543 13.3941 55.0411 13.2425C54.8814 13.0287 54.2719 12.8146 53.9889 12.8146C53.5468 12.8146 53.2291 12.8642 52.8585 13.05C52.5951 13.182 52.4046 13.3184 52.2081 13.5156C51.7896 13.9353 51.531 14.4567 51.531 15.0941C51.531 15.3582 51.5956 15.6686 51.6738 15.863C51.7222 15.9836 51.762 16.0608 51.8189 16.1736C51.8682 16.2715 51.9636 16.3774 51.9861 16.4619C51.624 16.5466 51.2878 17.0799 51.1669 17.1687C50.9103 16.9966 50.758 16.7825 50.3015 16.7586C50.0765 16.7469 49.9686 16.745 49.7424 16.7905C49.5376 16.8315 49.4314 16.8735 49.27 16.9556C48.6906 17.2502 48.3733 17.7983 48.1179 18.3775C47.7304 19.2562 47.5738 20.5259 47.4022 21.4904C47.2544 22.3211 46.989 23.2193 47.7583 23.843C48.1462 24.1575 48.5902 24.2813 49.1187 24.2813L48.4456 28.0068C48.2083 29.4287 47.9352 30.855 47.9352 32.3056C47.9352 32.3462 47.9397 32.3683 47.9448 32.3902C47.9338 32.8798 48.7242 33.0366 49.0949 33.0341C49.815 33.0298 51.5739 32.8173 51.336 31.7443C51.155 31.1894 50.7572 31.125 50.7572 30.7554ZM52.8965 23.0503C52.8965 23.5646 52.9623 23.9329 53.1392 24.2889C53.232 24.4758 53.3095 24.5712 53.4356 24.7214C54.181 25.6095 55.2789 25.8027 55.5353 27.7473L55.6944 29.047C55.7588 29.497 55.8175 29.8848 55.9184 30.2817C56.0118 30.6486 56.175 31.0493 56.333 31.3481C56.0757 31.4082 55.7664 31.4991 55.5492 31.2897C55.4525 31.1951 55.6201 31.3667 55.5273 31.266C55.2361 30.9501 55.19 30.3952 55.0986 29.963C54.8636 28.8526 54.5468 28.4705 54.0703 27.6876L53.6293 27.0123C53.398 26.6647 52.9496 26.0544 52.6407 25.7684L52.3539 25.5087C52.242 25.3841 52.2147 25.3434 51.9966 25.3189C51.7337 25.2894 51.4374 25.4891 51.4177 25.8319C51.369 26.6771 51.0173 27.4181 50.6893 28.1569L50.2336 29.0911C49.8393 29.8875 49.3786 30.6281 49.8235 31.4855C49.9207 31.6726 50.0773 31.7849 50.2338 31.9181C49.7298 31.9181 49.342 32.0758 49.1292 32.0461C48.7296 31.9904 48.6843 32.3147 48.8899 30.8227C48.9378 30.4754 48.9827 30.157 49.0406 29.811L49.4535 27.3067C49.4836 27.1263 49.5096 26.9791 49.5414 26.802L50.7881 21.0066C51.048 20.1159 51.2038 19.1102 51.6295 18.316C51.8932 17.8241 52.3273 17.2827 52.942 17.2827C53.5375 17.2827 54.2309 18.3616 54.4118 18.7967C54.6205 19.2986 54.7004 19.6724 55.1097 20.081C55.2867 20.2577 55.4361 20.4003 55.6657 20.5271C55.9601 20.6897 56.0411 20.7215 56.3643 20.8304C57.393 21.177 57.9698 20.8366 58.2845 21.0954C58.8056 21.5242 57.6502 21.6596 57.5391 21.6596C56.8795 21.6596 56.6872 21.6931 56.0284 21.4633C55.7143 21.3537 55.6957 21.3157 55.4682 21.2036L54.6541 20.6058C54.3894 20.3458 54.3464 20.1322 53.9206 20.1322C53.6573 20.1322 53.4425 20.3621 53.3504 20.5414L53.1422 21.313C53.0179 21.8108 52.8965 22.4249 52.8965 23.0503ZM49.3917 23.0046C49.2344 22.9914 48.9473 22.9832 48.8137 22.9453C48.3296 22.8086 48.5863 22.1436 48.6716 21.8501C48.8071 21.3832 48.9124 20.4351 49.1055 19.7544C49.2419 19.2731 49.3361 18.9185 49.5664 18.529C49.7564 18.2078 50.0813 17.9403 50.478 18.0409C50.5474 18.0586 50.5645 18.085 50.6434 18.1034L50.2593 19.246C49.9776 20.1215 49.627 21.9932 49.3917 23.0046Z" fill="currentColor"/>
<path d="M68.1641 18.1938L70.2737 16.2381C70.3644 16.1541 70.5456 16.145 70.6468 16.2182L73.4292 18.2423C73.6083 18.3472 73.6151 18.494 73.5779 18.6058C73.4904 18.7016 73.3781 18.6841 73.2774 18.6109L71.7311 17.478L70.9032 18.1511C70.7826 18.2134 70.6534 18.2383 70.502 18.17C70.502 18.17 69.8646 17.6229 69.5425 17.445L68.3775 18.5295C68.1191 18.7236 67.9357 18.4711 68.1641 18.1938Z" fill="currentColor"/>
<path fill-rule="evenodd" clip-rule="evenodd" d="M59.7839 28.4482C59.7459 28.5091 59.7406 28.5934 59.7704 28.6586C59.8488 28.83 60.0775 28.8443 60.1771 28.6846C60.1949 28.6544 60.2156 28.6245 60.2353 28.5953C60.3791 28.385 60.5443 28.186 60.7139 27.9965C60.8826 27.8098 60.6673 27.5144 60.4267 27.6449C60.4065 27.6572 60.3895 27.671 60.3734 27.6888C60.1666 27.9197 59.9628 28.1671 59.7956 28.4289L59.7839 28.4482ZM66.3906 17.7865C66.4548 17.6938 66.4428 17.567 66.3605 17.4888C66.2589 17.3921 66.0945 17.4082 66.0141 17.5239C65.8117 17.8119 65.6944 18.1362 65.6594 18.4861C65.6499 18.5758 65.6982 18.6639 65.7758 18.7078C65.9233 18.7879 66.0983 18.6952 66.1162 18.5284C66.1442 18.256 66.2328 18.0108 66.3906 17.7865ZM66.3831 19.7248C66.2611 19.5068 65.9343 19.6056 65.9528 19.8542C65.9565 19.8877 65.9637 19.9126 65.9794 19.9428C66.1247 20.2145 66.3451 20.524 66.5735 20.7313C66.6533 20.8075 66.7771 20.8151 66.866 20.7502C66.9816 20.6646 66.993 20.498 66.8895 20.3983C66.6905 20.2134 66.511 19.9638 66.3831 19.7248ZM67.9647 20.9088C67.702 20.89 67.6175 21.263 67.8744 21.3556C67.8938 21.3617 67.9106 21.3656 67.931 21.367L67.9706 21.3698C68.2727 21.3885 68.576 21.3851 68.878 21.3665C69.1424 21.3476 69.1746 20.971 68.9084 20.9117C68.8902 20.9082 68.8698 20.9066 68.8509 20.9079C68.8111 20.9112 68.7695 20.9124 68.7294 20.9142C68.4693 20.9267 68.2244 20.9237 67.9647 20.9088ZM70.2071 20.7764C69.966 20.8023 69.9257 21.15 70.1696 21.2252C70.2011 21.2336 70.2275 21.2363 70.2604 21.2328C70.562 21.1992 70.8628 21.161 71.1649 21.1304L71.1686 21.13C71.3853 21.1067 71.4524 20.8251 71.2641 20.7051C71.2188 20.6794 71.1741 20.6674 71.1218 20.6729L71.0141 20.6843C70.7447 20.7127 70.4762 20.7464 70.2071 20.7764ZM72.5221 20.6061C72.2866 20.6061 72.1992 20.9099 72.405 21.0354C72.4421 21.0555 72.4731 21.064 72.5151 21.0654C72.8135 21.0694 73.1132 21.0862 73.41 21.1168C73.6551 21.1432 73.7631 20.8108 73.5461 20.6879C73.5175 20.6725 73.4902 20.6635 73.458 20.66C73.1477 20.6278 72.834 20.6103 72.5221 20.6061ZM74.8478 20.919C74.7869 20.9009 74.7194 20.9111 74.6652 20.9441C74.4955 21.0522 74.5302 21.3038 74.7224 21.3608C74.9992 21.4365 75.2851 21.5435 75.5439 21.6676C75.7799 21.7768 75.9866 21.4795 75.803 21.2956C75.7856 21.279 75.7648 21.2639 75.743 21.2538C75.4611 21.1185 75.1496 21.0014 74.8478 20.919ZM76.9168 22.1237C76.7554 21.9366 76.4501 22.1017 76.5246 22.3447C76.5356 22.3749 76.5479 22.3986 76.5687 22.4229C76.7545 22.6383 76.8913 22.8724 76.9902 23.139C77.0802 23.3824 77.4447 23.3153 77.4347 23.0469C77.433 23.0245 77.4291 23.0034 77.4212 22.982C77.3033 22.6634 77.1386 22.3809 76.9168 22.1237ZM77.5781 24.4498C77.6139 24.1991 77.2642 24.0788 77.1432 24.3213C77.1332 24.344 77.1272 24.3631 77.1237 24.3875C77.0901 24.6531 77.0067 24.8925 76.828 25.0949C76.6762 25.2651 76.8292 25.5249 77.0518 25.4733C77.0946 25.4634 77.1338 25.4392 77.1641 25.4074C77.4064 25.1406 77.5332 24.8044 77.5781 24.4498ZM75.7933 26.0225C76.0587 25.9846 76.058 25.5967 75.7826 25.5661C75.7656 25.5649 75.7489 25.5649 75.7319 25.5673C75.4386 25.6079 75.1448 25.62 74.8489 25.619C74.5941 25.619 74.5251 25.9764 74.7758 26.0668C74.7995 26.0741 74.8216 26.0783 74.8465 26.0783C75.1641 26.0794 75.4786 26.066 75.7933 26.0225ZM73.4531 26.0013C73.4793 26.0042 73.5049 26.0013 73.5301 25.9956C73.7797 25.9282 73.7508 25.5714 73.4957 25.544C73.1939 25.5164 72.8901 25.4846 72.5892 25.4475C72.3137 25.418 72.2267 25.8125 72.501 25.8971C72.5124 25.9001 72.5238 25.9026 72.5354 25.9038C72.8406 25.9403 73.147 25.9733 73.4531 26.0013ZM71.1668 25.7292C71.2692 25.7438 71.3669 25.6862 71.4083 25.5921C71.4695 25.4524 71.3766 25.2952 71.2281 25.2739C70.9252 25.2332 70.6223 25.1918 70.3197 25.1503C70.2686 25.143 70.2144 25.1542 70.1704 25.1811C69.9856 25.2938 70.0434 25.5749 70.2576 25.6055L71.1668 25.7292ZM68.8949 25.42C68.9346 25.4258 68.975 25.4199 69.012 25.405C69.2309 25.3086 69.1853 24.9975 68.9555 24.9647C68.647 24.9237 68.3431 24.8831 68.0327 24.857C67.781 24.839 67.687 25.1789 67.9145 25.2928C67.9421 25.305 67.9658 25.3127 67.9958 25.3149C68.2982 25.3403 68.5943 25.3801 68.8949 25.42ZM66.6504 25.2877C66.7463 25.2842 66.8361 25.214 66.8605 25.1201C66.9014 24.9675 66.7864 24.8231 66.6288 24.8287C66.3172 24.8424 66.003 24.8708 65.6941 24.9147C65.4452 24.9503 65.4268 25.3086 65.6775 25.3665C65.7061 25.3719 65.7296 25.3737 65.7589 25.3695C66.0542 25.328 66.3525 25.3008 66.6504 25.2877ZM64.4493 25.6544C64.6878 25.5836 64.6588 25.2245 64.3939 25.2049C64.3671 25.2039 64.3428 25.2069 64.3173 25.2144C64.0165 25.3037 63.7208 25.4111 63.4312 25.5318C63.1942 25.6323 63.2768 25.9921 63.5406 25.9725C63.5647 25.9698 63.5859 25.9652 63.6089 25.9554C63.8833 25.8409 64.1641 25.739 64.4493 25.6544ZM62.4211 26.571C62.6408 26.4334 62.4965 26.0853 62.2355 26.1557C62.2148 26.1618 62.1959 26.1702 62.1777 26.1816C61.9103 26.3474 61.6547 26.5307 61.4068 26.7242C61.1945 26.8983 61.4035 27.2293 61.6525 27.1095C61.6664 27.102 61.6794 27.0944 61.6916 27.0844C61.9229 26.9015 62.1705 26.7264 62.4211 26.571Z" fill="currentColor"/>
<path d="M47.0742 4.50106C47.1019 4.50649 56.6566 6.38436 67.3365 7.23525C69.0081 7.36847 70.4964 7.50192 71.819 7.63242C72.0097 7.94933 72.2018 8.25743 72.3904 8.55476C72.5646 8.82926 72.7397 9.10387 72.9166 9.37793C71.3173 9.2098 69.4295 9.03361 67.2096 8.85678C58.3603 8.15162 50.2712 6.7464 47.6501 6.26418C46.906 14.1153 43.9842 27.2024 43.2074 30.5996L54.3499 32.6644L65.3001 28.8284C65.4224 28.7857 65.5567 28.7716 65.6936 28.7934L80.5292 31.1641C80.9424 26.7403 80.4446 13.4476 80.323 10.4102C80.1494 10.3743 80.0582 10.355 79.7935 10.3067C80.1171 9.82001 80.3084 9.3055 80.6216 8.81382C81.1064 8.91246 81.3139 8.96933 81.3163 8.96988C81.6849 9.06863 81.9261 9.40631 81.9182 9.77216C81.9614 10.7986 82.6935 28.4823 82.0285 32.2373C81.9514 32.6798 81.5307 32.9758 81.0891 32.8986L81.0439 32.8894L65.6414 30.4281L54.681 34.2676C54.5369 34.3179 54.3883 34.3251 54.249 34.2958L42.08 32.0408C41.6401 31.9601 41.3488 31.5373 41.4294 31.0966L41.4373 31.0587L41.4357 31.0584C41.4472 31.0091 45.4438 13.9654 46.1093 5.23863C46.1425 4.79089 46.532 4.45495 46.979 4.48833C47.0113 4.49073 47.043 4.49508 47.0742 4.50106Z" fill="currentColor"/>
</svg>
